# WaveFront *.obj file (generated by Autodesk ATF)

mtllib bottom_plate.mtl

g Solid1

v -0.094880 -0.020167 0.000000
v -0.094880 -0.020167 0.035000
v -0.094880 0.020167 0.000000
v -0.094880 0.020167 0.035000
v -0.078475 -0.057015 0.000000
v -0.078475 -0.057015 0.035000
v -0.078475 0.057015 0.000000
v -0.078475 0.057015 0.035000
v -0.048500 -0.084004 0.000000
v -0.048500 -0.084004 0.035000
v -0.048500 0.084004 0.000000
v -0.048500 0.084004 0.035000
v -0.010139 -0.096469 0.000000
v -0.010139 -0.096469 0.035000
v -0.010139 0.096469 0.000000
v -0.010139 0.096469 0.035000
v 0.029975 -0.092252 0.000000
v 0.029975 -0.092252 0.035000
v 0.029975 0.092252 0.000000
v 0.029975 0.092252 0.035000
v 0.064906 -0.072085 0.000000
v 0.064906 -0.072085 0.035000
v 0.064906 0.072085 0.000000
v 0.064906 0.072085 0.035000
v 0.088614 -0.039453 0.000000
v 0.088614 -0.039453 0.035000
v 0.088614 0.039453 0.000000
v 0.088614 0.039453 0.035000
v 0.097000 0.000000 0.000000
v 0.097000 0.000000 0.035000
vt -3.500000 0.000000 0.000000
vt -3.500000 -4.063127 0.000000
vt -3.500000 -8.126253 0.000000
vt -3.500000 -12.189380 0.000000
vt -3.500000 -16.252506 0.000000
vt -3.500000 -20.315632 0.000000
vt -3.500000 -24.378759 0.000000
vt -3.500000 -28.441885 0.000000
vt -3.500000 28.441885 0.000000
vt -3.500000 24.378759 0.000000
vt -3.500000 20.315632 0.000000
vt -3.500000 16.252506 0.000000
vt -3.500000 12.189380 0.000000
vt -3.500000 8.126253 0.000000
vt -3.500000 4.063127 0.000000
vt -0.000000 0.000000 0.000000
vt -0.000000 4.063127 0.000000
vt -0.000000 8.126253 0.000000
vt -0.000000 12.189380 0.000000
vt -0.000000 16.252506 0.000000
vt -0.000000 20.315632 0.000000
vt -0.000000 24.378759 0.000000
vt -0.000000 -32.505013 0.000000
vt -0.000000 -28.441885 0.000000
vt -0.000000 -24.378759 0.000000
vt -0.000000 -20.315632 0.000000
vt -0.000000 -16.252506 0.000000
vt -0.000000 -12.189380 0.000000
vt -0.000000 -8.126253 0.000000
vt -0.000000 -4.063127 0.000000
vt -0.000000 28.441885 0.000000
vt -0.000000 28.441885 0.000000
vt -3.500000 -32.505013 0.000000
vt -3.500000 -32.505013 0.000000
vt 9.700000 0.000000 0.000000
vt 8.861391 3.945345 0.000000
vt 6.490567 7.208505 0.000000
vt 2.997465 9.225248 0.000000
vt -1.013926 9.646862 0.000000
vt -4.850000 8.400447 0.000000
vt -7.847465 5.701517 0.000000
vt -9.488031 2.016743 0.000000
vt -9.488031 -2.016743 0.000000
vt -7.847465 -5.701517 0.000000
vt -4.850000 -8.400447 0.000000
vt -1.013926 -9.646862 0.000000
vt 2.997465 -9.225248 0.000000
vt 6.490567 -7.208505 0.000000
vt 8.861391 -3.945345 0.000000
vt -9.700000 0.000000 0.000000
vt -8.861391 -3.945345 0.000000
vt -6.490567 -7.208505 0.000000
vt -2.997465 -9.225248 0.000000
vt 1.013926 -9.646862 0.000000
vt 4.850000 -8.400447 0.000000
vt 7.847465 -5.701517 0.000000
vt 9.488031 -2.016743 0.000000
vt 9.488031 2.016743 0.000000
vt 7.847465 5.701517 0.000000
vt 4.850000 8.400447 0.000000
vt 1.013926 9.646862 0.000000
vt -2.997465 9.225248 0.000000
vt -6.490567 7.208505 0.000000
vt -8.861391 3.945345 0.000000
vn 100.000000 0.000000 0.000000
vn 91.354543 -40.673664 0.000000
vn 66.913062 -74.314481 0.000000
vn 30.901700 -95.105654 0.000000
vn -10.452846 -99.452192 0.000000
vn -50.000000 -86.602539 0.000000
vn -80.901700 -58.778524 0.000000
vn -97.814763 -20.791169 0.000000
vn -97.814763 20.791169 0.000000
vn -80.901700 58.778524 0.000000
vn -50.000000 86.602539 0.000000
vn -10.452846 99.452192 0.000000
vn 30.901700 95.105654 0.000000
vn 66.913062 74.314481 0.000000
vn 91.354543 40.673664 0.000000
vn 100.000000 0.000000 0.000000
vn 91.354543 40.673664 0.000000
vn 66.913062 74.314481 0.000000
vn 30.901700 95.105654 0.000000
vn -10.452846 99.452192 0.000000
vn -50.000000 86.602539 0.000000
vn -80.901700 58.778524 0.000000
vn -97.814763 20.791169 0.000000
vn -97.814763 -20.791169 0.000000
vn -80.901700 -58.778524 0.000000
vn -50.000000 -86.602539 0.000000
vn -10.452846 -99.452192 0.000000
vn 30.901700 -95.105654 0.000000
vn 66.913062 -74.314481 0.000000
vn 91.354543 -40.673664 0.000000
vn -97.814763 20.791169 0.000000
vn -97.814763 20.791169 0.000000
vn -97.814763 20.791169 0.000000
vn -97.814763 20.791169 0.000000
vn 0.000000 0.000000 100.000000
vn 0.000000 0.000000 100.000000
vn 0.000000 0.000000 100.000000
vn 0.000000 0.000000 100.000000
vn 0.000000 0.000000 100.000000
vn 0.000000 0.000000 100.000000
vn 0.000000 0.000000 100.000000
vn 0.000000 0.000000 100.000000
vn 0.000000 0.000000 100.000000
vn 0.000000 0.000000 100.000000
vn 0.000000 0.000000 100.000000
vn 0.000000 0.000000 100.000000
vn 0.000000 0.000000 100.000000
vn 0.000000 0.000000 100.000000
vn 0.000000 0.000000 100.000000
vn 0.000000 0.000000 -100.000000
vn 0.000000 0.000000 -100.000000
vn 0.000000 0.000000 -100.000000
vn 0.000000 0.000000 -100.000000
vn 0.000000 0.000000 -100.000000
vn 0.000000 0.000000 -100.000000
vn 0.000000 0.000000 -100.000000
vn 0.000000 0.000000 -100.000000
vn 0.000000 0.000000 -100.000000
vn 0.000000 0.000000 -100.000000
vn 0.000000 0.000000 -100.000000
vn 0.000000 0.000000 -100.000000
vn 0.000000 0.000000 -100.000000
vn 0.000000 0.000000 -100.000000
vn 0.000000 0.000000 -100.000000
usemtl 96,96,96
f 26/2/2 29/16/16 30/1/1
f 30/1/1 29/16/16 27/17/17
f 30/1/1 27/17/17 28/15/15
f 28/15/15 27/17/17 23/18/18
f 28/15/15 23/18/18 24/14/14
f 24/14/14 23/18/18 19/19/19
f 24/14/14 19/19/19 20/13/13
f 20/13/13 19/19/19 15/20/20
f 20/13/13 15/20/20 16/12/12
f 16/12/12 15/20/20 11/21/21
f 16/12/12 11/21/21 12/11/11
f 12/11/11 11/21/21 7/22/22
f 12/11/11 7/22/22 8/10/10
f 8/10/10 7/22/22 3/31/31
f 8/10/10 3/32/32 4/9/9
f 4/33/33 3/23/23 1/24/24
f 4/34/34 1/24/24 2/8/8
f 2/8/8 1/24/24 5/25/25
f 2/8/8 5/25/25 6/7/7
f 6/7/7 5/25/25 9/26/26
f 6/7/7 9/26/26 10/6/6
f 10/6/6 9/26/26 13/27/27
f 10/6/6 13/27/27 14/5/5
f 14/5/5 13/27/27 17/28/28
f 14/5/5 17/28/28 18/4/4
f 18/4/4 17/28/28 21/29/29
f 18/4/4 21/29/29 22/3/3
f 22/3/3 21/29/29 25/30/30
f 22/3/3 25/30/30 26/2/2
f 26/2/2 25/30/30 29/16/16
f 30/35/35 28/36/36 26/49/49
f 26/49/49 28/36/36 24/37/37
f 26/49/49 24/37/37 22/48/48
f 22/48/48 24/37/37 20/38/38
f 22/48/48 20/38/38 18/47/47
f 18/47/47 20/38/38 16/39/39
f 18/47/47 16/39/39 14/46/46
f 14/46/46 16/39/39 12/40/40
f 14/46/46 12/40/40 10/45/45
f 10/45/45 12/40/40 8/41/41
f 10/45/45 8/41/41 6/44/44
f 6/44/44 8/41/41 4/42/42
f 6/44/44 4/42/42 2/43/43
f 29/50/50 25/51/51 27/64/64
f 27/64/64 25/51/51 23/63/63
f 23/63/63 25/51/51 21/52/52
f 23/63/63 21/52/52 19/62/62
f 19/62/62 21/52/52 17/53/53
f 19/62/62 17/53/53 15/61/61
f 15/61/61 17/53/53 13/54/54
f 15/61/61 13/54/54 11/60/60
f 11/60/60 13/54/54 9/55/55
f 11/60/60 9/55/55 7/59/59
f 7/59/59 9/55/55 5/56/56
f 7/59/59 5/56/56 3/58/58
f 3/58/58 5/56/56 1/57/57

# 30 vertices
# 64 texture params
# 64 normals
# 56 facets

# 1 groups
