# Blender v2.91.0 OBJ File: 'box.blend'
# www.blender.org
mtllib box.mtl
o cardboard_box
v 0.000000 0.450000 0.000000
v 0.000000 0.000000 0.000000
v 0.000000 0.450000 0.310000
v 0.000000 -0.000000 0.310000
v 0.070000 0.450000 0.000000
v 0.070000 0.450000 0.310000
v 0.070000 0.000000 0.000000
v 0.070000 -0.000000 0.310000
vt 0.725000 0.345000
vt 0.275000 0.345000
vt 0.725000 0.655000
vt 0.275000 0.655000
vt 0.535000 0.345000
vt 0.465000 0.345000
vt 0.535000 0.655000
vt 0.465000 0.655000
vt 0.275000 0.345000
vt 0.725000 0.345000
vt 0.275000 0.655000
vt 0.725000 0.655000
vt 0.465000 0.345000
vt 0.535000 0.345000
vt 0.465000 0.655000
vt 0.535000 0.655000
vt 0.465000 0.275000
vt 0.535000 0.275000
vt 0.465000 0.725000
vt 0.535000 0.725000
vt 0.535000 0.275000
vt 0.465000 0.275000
vt 0.535000 0.725000
vt 0.465000 0.725000
vn -1.0000 0.0000 0.0000
vn 0.0000 1.0000 0.0000
vn 1.0000 0.0000 0.0000
vn 0.0000 -1.0000 -0.0000
vn 0.0000 -0.0000 1.0000
vn 0.0000 0.0000 -1.0000
usemtl Material.001
s 1
f 1/1/1 2/2/1 3/3/1
f 3/3/1 2/2/1 4/4/1
f 5/5/2 1/6/2 6/7/2
f 6/7/2 1/6/2 3/8/2
f 7/9/3 5/10/3 8/11/3
f 8/11/3 5/10/3 6/12/3
f 2/13/4 7/14/4 4/15/4
f 4/15/4 7/14/4 8/16/4
f 4/17/5 8/18/5 3/19/5
f 3/19/5 8/18/5 6/20/5
f 7/21/6 2/22/6 5/23/6
f 5/23/6 2/22/6 1/24/6
